<svg width="557" height="224" viewBox="0 0 557 224" fill="none" xmlns="http://www.w3.org/2000/svg">
<path d="M290.039 142.996C290.039 144.285 289.87 145.529 289.531 146.727C289.206 147.911 288.737 149.025 288.125 150.066C287.513 151.095 286.784 152.039 285.938 152.898C285.091 153.745 284.147 154.474 283.105 155.086C282.064 155.698 280.944 156.173 279.746 156.512C278.561 156.837 277.324 157 276.035 157H267.598V128.992H276.035C277.324 128.992 278.561 129.161 279.746 129.5C280.944 129.826 282.064 130.294 283.105 130.906C284.147 131.518 285.091 132.254 285.938 133.113C286.784 133.96 287.513 134.904 288.125 135.945C288.737 136.974 289.206 138.087 289.531 139.285C289.87 140.47 290.039 141.707 290.039 142.996ZM284.434 142.996C284.434 141.837 284.212 140.75 283.77 139.734C283.34 138.719 282.741 137.833 281.973 137.078C281.217 136.31 280.326 135.704 279.297 135.262C278.281 134.819 277.194 134.598 276.035 134.598H273.242V151.395H276.035C277.194 151.395 278.281 151.18 279.297 150.75C280.326 150.307 281.217 149.708 281.973 148.953C282.741 148.185 283.34 147.293 283.77 146.277C284.212 145.249 284.434 144.155 284.434 142.996ZM313.457 157H312.168L310.098 154.129C309.59 154.585 309.049 155.014 308.477 155.418C307.917 155.809 307.324 156.154 306.699 156.453C306.074 156.74 305.43 156.967 304.766 157.137C304.115 157.306 303.451 157.391 302.773 157.391C301.302 157.391 299.915 157.143 298.613 156.648C297.324 156.154 296.191 155.438 295.215 154.5C294.251 153.549 293.49 152.391 292.93 151.023C292.37 149.656 292.09 148.1 292.09 146.355C292.09 144.728 292.37 143.237 292.93 141.883C293.49 140.516 294.251 139.344 295.215 138.367C296.191 137.391 297.324 136.635 298.613 136.102C299.915 135.555 301.302 135.281 302.773 135.281C303.451 135.281 304.121 135.366 304.785 135.535C305.449 135.704 306.094 135.939 306.719 136.238C307.344 136.538 307.936 136.889 308.496 137.293C309.069 137.697 309.603 138.133 310.098 138.602L312.168 136.121H313.457V157ZM308.086 146.355C308.086 145.626 307.943 144.923 307.656 144.246C307.383 143.556 307.005 142.951 306.523 142.43C306.042 141.896 305.475 141.473 304.824 141.16C304.186 140.835 303.503 140.672 302.773 140.672C302.044 140.672 301.354 140.796 300.703 141.043C300.065 141.29 299.505 141.655 299.023 142.137C298.555 142.618 298.184 143.217 297.91 143.934C297.637 144.637 297.5 145.444 297.5 146.355C297.5 147.267 297.637 148.081 297.91 148.797C298.184 149.5 298.555 150.092 299.023 150.574C299.505 151.056 300.065 151.421 300.703 151.668C301.354 151.915 302.044 152.039 302.773 152.039C303.503 152.039 304.186 151.883 304.824 151.57C305.475 151.245 306.042 150.822 306.523 150.301C307.005 149.767 307.383 149.161 307.656 148.484C307.943 147.794 308.086 147.085 308.086 146.355ZM328.027 157C326.738 157 325.527 156.759 324.395 156.277C323.262 155.783 322.266 155.112 321.406 154.266C320.56 153.406 319.889 152.41 319.395 151.277C318.913 150.145 318.672 148.934 318.672 147.645V141.434H316.074V136.121H318.672V127.762H323.984V136.121H332.07V141.434H323.984V147.645C323.984 148.204 324.089 148.732 324.297 149.227C324.505 149.708 324.792 150.132 325.156 150.496C325.521 150.861 325.951 151.154 326.445 151.375C326.94 151.583 327.467 151.688 328.027 151.688H332.07V157H328.027ZM355.332 157H354.043L351.973 154.129C351.465 154.585 350.924 155.014 350.352 155.418C349.792 155.809 349.199 156.154 348.574 156.453C347.949 156.74 347.305 156.967 346.641 157.137C345.99 157.306 345.326 157.391 344.648 157.391C343.177 157.391 341.79 157.143 340.488 156.648C339.199 156.154 338.066 155.438 337.09 154.5C336.126 153.549 335.365 152.391 334.805 151.023C334.245 149.656 333.965 148.1 333.965 146.355C333.965 144.728 334.245 143.237 334.805 141.883C335.365 140.516 336.126 139.344 337.09 138.367C338.066 137.391 339.199 136.635 340.488 136.102C341.79 135.555 343.177 135.281 344.648 135.281C345.326 135.281 345.996 135.366 346.66 135.535C347.324 135.704 347.969 135.939 348.594 136.238C349.219 136.538 349.811 136.889 350.371 137.293C350.944 137.697 351.478 138.133 351.973 138.602L354.043 136.121H355.332V157ZM349.961 146.355C349.961 145.626 349.818 144.923 349.531 144.246C349.258 143.556 348.88 142.951 348.398 142.43C347.917 141.896 347.35 141.473 346.699 141.16C346.061 140.835 345.378 140.672 344.648 140.672C343.919 140.672 343.229 140.796 342.578 141.043C341.94 141.29 341.38 141.655 340.898 142.137C340.43 142.618 340.059 143.217 339.785 143.934C339.512 144.637 339.375 145.444 339.375 146.355C339.375 147.267 339.512 148.081 339.785 148.797C340.059 149.5 340.43 150.092 340.898 150.574C341.38 151.056 341.94 151.421 342.578 151.668C343.229 151.915 343.919 152.039 344.648 152.039C345.378 152.039 346.061 151.883 346.699 151.57C347.35 151.245 347.917 150.822 348.398 150.301C348.88 149.767 349.258 149.161 349.531 148.484C349.818 147.794 349.961 147.085 349.961 146.355Z" fill="#E48028"/>
<path d="M364.453 164.969V159.598L367.422 159.637C367.943 159.637 368.444 159.552 368.926 159.383C369.408 159.214 369.85 158.979 370.254 158.68C370.671 158.38 371.035 158.022 371.348 157.605C371.66 157.202 371.914 156.759 372.109 156.277C371.523 156.525 370.924 156.772 370.312 157.02C369.714 157.267 369.108 157.391 368.496 157.391C367.207 157.391 365.996 157.163 364.863 156.707C363.73 156.251 362.734 155.607 361.875 154.773C361.029 153.927 360.358 152.905 359.863 151.707C359.382 150.496 359.141 149.142 359.141 147.645V136.082H364.453V147.645C364.453 148.387 364.557 149.038 364.766 149.598C364.987 150.145 365.28 150.607 365.645 150.984C366.009 151.349 366.432 151.622 366.914 151.805C367.409 151.987 367.936 152.078 368.496 152.078C369.043 152.078 369.557 151.954 370.039 151.707C370.534 151.447 370.964 151.108 371.328 150.691C371.693 150.275 371.979 149.806 372.188 149.285C372.396 148.751 372.5 148.204 372.5 147.645V136.082H377.871V154.363C377.858 155.835 377.572 157.215 377.012 158.504C376.452 159.793 375.684 160.919 374.707 161.883C373.743 162.846 372.617 163.608 371.328 164.168C370.039 164.728 368.659 165.008 367.188 165.008L364.453 164.969ZM402.207 157H400.918L398.848 154.129C398.34 154.585 397.799 155.014 397.227 155.418C396.667 155.809 396.074 156.154 395.449 156.453C394.824 156.74 394.18 156.967 393.516 157.137C392.865 157.306 392.201 157.391 391.523 157.391C390.052 157.391 388.665 157.143 387.363 156.648C386.074 156.154 384.941 155.438 383.965 154.5C383.001 153.549 382.24 152.391 381.68 151.023C381.12 149.656 380.84 148.1 380.84 146.355C380.84 144.728 381.12 143.237 381.68 141.883C382.24 140.516 383.001 139.344 383.965 138.367C384.941 137.391 386.074 136.635 387.363 136.102C388.665 135.555 390.052 135.281 391.523 135.281C392.201 135.281 392.871 135.366 393.535 135.535C394.199 135.704 394.844 135.939 395.469 136.238C396.094 136.538 396.686 136.889 397.246 137.293C397.819 137.697 398.353 138.133 398.848 138.602L400.918 136.121H402.207V157ZM396.836 146.355C396.836 145.626 396.693 144.923 396.406 144.246C396.133 143.556 395.755 142.951 395.273 142.43C394.792 141.896 394.225 141.473 393.574 141.16C392.936 140.835 392.253 140.672 391.523 140.672C390.794 140.672 390.104 140.796 389.453 141.043C388.815 141.29 388.255 141.655 387.773 142.137C387.305 142.618 386.934 143.217 386.66 143.934C386.387 144.637 386.25 145.444 386.25 146.355C386.25 147.267 386.387 148.081 386.66 148.797C386.934 149.5 387.305 150.092 387.773 150.574C388.255 151.056 388.815 151.421 389.453 151.668C390.104 151.915 390.794 152.039 391.523 152.039C392.253 152.039 392.936 151.883 393.574 151.57C394.225 151.245 394.792 150.822 395.273 150.301C395.755 149.767 396.133 149.161 396.406 148.484C396.693 147.794 396.836 147.085 396.836 146.355ZM411.66 157H406.289V127.762H411.66V146.199L419.609 136.121H425.742L418.809 144.832L425.742 157H419.609L415.371 149.402L411.66 154.324V157ZM447.402 146.355C447.402 147.918 447.122 149.376 446.562 150.73C446.003 152.072 445.241 153.237 444.277 154.227C443.314 155.203 442.181 155.978 440.879 156.551C439.59 157.111 438.203 157.391 436.719 157.391C435.247 157.391 433.861 157.111 432.559 156.551C431.27 155.978 430.137 155.203 429.16 154.227C428.197 153.237 427.435 152.072 426.875 150.73C426.315 149.376 426.035 147.918 426.035 146.355C426.035 144.767 426.315 143.296 426.875 141.941C427.435 140.587 428.197 139.422 429.16 138.445C430.137 137.456 431.27 136.681 432.559 136.121C433.861 135.561 435.247 135.281 436.719 135.281C438.203 135.281 439.59 135.548 440.879 136.082C442.181 136.603 443.314 137.352 444.277 138.328C445.241 139.292 446.003 140.457 446.562 141.824C447.122 143.178 447.402 144.689 447.402 146.355ZM442.031 146.355C442.031 145.496 441.888 144.721 441.602 144.031C441.328 143.328 440.951 142.729 440.469 142.234C439.987 141.727 439.421 141.342 438.77 141.082C438.132 140.809 437.448 140.672 436.719 140.672C435.99 140.672 435.299 140.809 434.648 141.082C434.01 141.342 433.451 141.727 432.969 142.234C432.5 142.729 432.129 143.328 431.855 144.031C431.582 144.721 431.445 145.496 431.445 146.355C431.445 147.163 431.582 147.911 431.855 148.602C432.129 149.292 432.5 149.891 432.969 150.398C433.451 150.906 434.01 151.31 434.648 151.609C435.299 151.896 435.99 152.039 436.719 152.039C437.448 152.039 438.132 151.902 438.77 151.629C439.421 151.355 439.987 150.971 440.469 150.477C440.951 149.982 441.328 149.383 441.602 148.68C441.888 147.977 442.031 147.202 442.031 146.355Z" fill="#0667A9"/>
<path d="M238.283 69.1312C235.403 47.8488 215.358 44.8086 184.458 71.3836C182.797 47.9618 164.766 48.211 146.485 59.4296C136.484 65.5672 126.677 75.2412 114.901 87.2137C103.272 99.0381 78.4181 127.143 51 158.71C56.6072 162.153 61.2192 167.086 64.2778 173L131.131 89.8831C131.131 89.8831 153.761 63.219 166.212 68.1928C178.664 73.1661 168.963 91.76 166.262 97.5697C157.595 116.21 131.853 161.321 131.853 161.321C131.853 161.321 171.542 102.317 195.056 80.6143C198.197 77.7147 209.065 67.9087 217.402 67.5584C224.607 67.2563 230.549 73.5817 225.907 86.0399C220.714 99.9765 211.003 119.524 197.828 140.04C197.828 140.04 197.361 143.71 201.947 137.141C215.902 117.153 249.921 68.576 269.766 66.937C277.726 66.2793 281.646 73.8261 280.105 82.5359C277.348 98.122 262.761 119.611 262.761 119.611C262.072 120.588 262.96 121.56 263.651 121.307C277.437 100.961 290.345 88.6669 291 72.2496C291 72.2496 289.888 28.8441 238.283 69.1312ZM242.791 152.973C234.233 147.957 234.233 135.348 242.791 130.331C251.349 125.315 262.105 131.62 262.105 141.652C262.105 151.685 251.349 157.99 242.791 152.973Z" fill="#0667A9"/>
<circle cx="249.5" cy="141.5" r="15.5" fill="#E48028"/>
</svg>
